<svg xmlns="http://www.w3.org/2000/svg" width="512" height="512" viewBox="0 0 512 512">
  <!-- Fondo verde oscuro redondeado -->
  <rect width="512" height="512" rx="110" fill="#0D3D2A"/>

  <!-- Orejas izquierda y derecha (fondo) -->
  <ellipse cx="155" cy="168" rx="52" ry="66" fill="#1D9E75"/>
  <ellipse cx="357" cy="168" rx="52" ry="66" fill="#1D9E75"/>

  <!-- Inner ear highlight -->
  <ellipse cx="155" cy="168" rx="30" ry="44" fill="#2FC48F"/>
  <ellipse cx="357" cy="168" rx="30" ry="44" fill="#2FC48F"/>

  <!-- Cabeza -->
  <circle cx="256" cy="268" r="148" fill="#1D9E75"/>

  <!-- Cuerpo / parte baja -->
  <ellipse cx="256" cy="372" rx="110" ry="88" fill="#1D9E75"/>

  <!-- Ojos blancos -->
  <circle cx="210" cy="248" r="34" fill="#ffffff"/>
  <circle cx="302" cy="248" r="34" fill="#ffffff"/>

  <!-- Pupilas -->
  <circle cx="216" cy="255" r="18" fill="#0D2B1E"/>
  <circle cx="308" cy="255" r="18" fill="#0D2B1E"/>

  <!-- Brillo ojos -->
  <circle cx="222" cy="248" r="7" fill="#ffffff"/>
  <circle cx="314" cy="248" r="7" fill="#ffffff"/>

  <!-- Nariz -->
  <ellipse cx="256" cy="282" rx="20" ry="13" fill="#085041"/>

  <!-- Sonrisa -->
  <path d="M218 308 Q256 342 294 308" stroke="#085041" stroke-width="11" fill="none" stroke-linecap="round"/>

  <!-- Mejillas rosadas -->
  <ellipse cx="185" cy="295" rx="22" ry="14" fill="#FF8FA3" opacity="0.35"/>
  <ellipse cx="327" cy="295" rx="22" ry="14" fill="#FF8FA3" opacity="0.35"/>
</svg>
