<svg xmlns="http://www.w3.org/2000/svg" viewBox="0 0 192 192">
  <!-- Fondo -->
  <rect width="192" height="192" rx="40" fill="#0D3D2A"/>

  <!-- Orejas -->
  <ellipse cx="58" cy="62" rx="20" ry="26" fill="#1D9E75"/>
  <ellipse cx="134" cy="62" rx="20" ry="26" fill="#1D9E75"/>
  <ellipse cx="58" cy="62" rx="12" ry="17" fill="#2FC48F"/>
  <ellipse cx="134" cy="62" rx="12" ry="17" fill="#2FC48F"/>

  <!-- Cabeza -->
  <circle cx="96" cy="104" r="56" fill="#1D9E75"/>

  <!-- Cuerpo -->
  <ellipse cx="96" cy="142" rx="42" ry="34" fill="#1D9E75"/>

  <!-- Ojos blancos -->
  <circle cx="79" cy="96" r="13" fill="#ffffff"/>
  <circle cx="113" cy="96" r="13" fill="#ffffff"/>

  <!-- Pupilas -->
  <circle cx="81" cy="99" r="7" fill="#0D2B1E"/>
  <circle cx="115" cy="99" r="7" fill="#0D2B1E"/>

  <!-- Brillo -->
  <circle cx="84" cy="96" r="3" fill="#ffffff"/>
  <circle cx="118" cy="96" r="3" fill="#ffffff"/>

  <!-- Nariz -->
  <ellipse cx="96" cy="109" rx="8" ry="5" fill="#085041"/>

  <!-- Sonrisa -->
  <path d="M82 118 Q96 130 110 118" stroke="#085041" stroke-width="4" fill="none" stroke-linecap="round"/>

  <!-- Mejillas -->
  <ellipse cx="68" cy="111" rx="9" ry="6" fill="#FF8FA3" opacity="0.35"/>
  <ellipse cx="124" cy="111" rx="9" ry="6" fill="#FF8FA3" opacity="0.35"/>
</svg>
